<?xml version="1.0" encoding="utf-8"?><svg xmlns="http://www.w3.org/2000/svg" xmlns:xlink="http://www.w3.org/1999/xlink"><symbol viewBox="0 0 18 21" id="activ_button" xmlns="http://www.w3.org/2000/svg"><path fill-rule="evenodd" d="M2 18a1 1 0 110 2 1 1 0 010-2zm7-4a1 1 0 110 2 1 1 0 010-2zm7-2a1 1 0 110 2 1 1 0 010-2zM1 1h2v15H1V1zm7 0h2v11H8V1zm7 0h2v9h-2V1z"/></symbol><symbol viewBox="0 0 26 23" id="basket" xmlns="http://www.w3.org/2000/svg"><path fill-rule="evenodd" d="M19.424 16.55c-1.513 0-2.744 1.222-2.744 2.724a2.738 2.738 0 002.744 2.725c1.513 0 2.744-1.222 2.744-2.725 0-1.502-1.231-2.725-2.744-2.725zm0 3.814a1.096 1.096 0 01-1.098-1.09c0-.6.493-1.09 1.098-1.09.605 0 1.098.49 1.098 1.09 0 .601-.493 1.09-1.098 1.09zm4.407-14.346a.825.825 0 00-.648-.313H7.081l-.74-3.078a.822.822 0 00-.801-.628H2.823A.82.82 0 002 2.816c0 .451.369.818.823.818H4.89L7.565 14.75c.089.368.42.627.8.627H21.18a.822.822 0 00.8-.62l2.002-8.039a.815.815 0 00-.15-.7zm-3.295 7.725H9.016L7.475 7.34H22.13l-1.595 6.403zM9.464 16.549c-1.514 0-2.745 1.223-2.745 2.725 0 1.503 1.231 2.725 2.745 2.725a2.738 2.738 0 002.743-2.725 2.737 2.737 0 00-2.743-2.725zm0 3.815a1.095 1.095 0 01-1.098-1.09c0-.6.492-1.09 1.098-1.09.605 0 1.097.49 1.097 1.09 0 .601-.492 1.09-1.097 1.09z"/></symbol><symbol viewBox="-0.995 -1 333.008 532.818" id="footer-background-1" xmlns="http://www.w3.org/2000/svg"><defs><path d="M188.02 323.08v38.32c0 7.38 5.98 13.36 13.36 13.36 7.38 0 13.37-5.98 13.37-13.36v-40.39c0-6.75 5.46-12.21 12.21-12.21 6.74 0 12.21 5.46 12.21 12.21v112.1c0 10.67 8.65 19.33 19.32 19.33 10.68 0 19.33-8.66 19.33-19.33V320.59c0-6.52 5.29-11.79 11.79-11.79 6.52 0 11.8 5.27 11.8 11.79v88.58c0 10.67 8.65 19.33 19.32 19.33 2.97 0 5.77-.67 8.28-1.86V0H0v308.8h173.73c7.89 0 14.29 6.39 14.29 14.28" id="ca"/><path d="M261.56 494.58c-9.45 0-17.11 7.66-17.11 17.12 0 9.45 7.66 17.12 17.11 17.12 9.46 0 17.12-7.67 17.12-17.12 0-9.46-7.66-17.12-17.12-17.12" id="cb"/></defs><use xlink:href="#ca"/><use xlink:href="#ca" fill-opacity="0" stroke-opacity="0"/><use xlink:href="#cb"/><use xlink:href="#cb" fill-opacity="0" stroke-opacity="0"/></symbol><symbol viewBox="-1 -1.004 203.086 262.917" id="footer-background-2" xmlns="http://www.w3.org/2000/svg"><defs><path d="M179.78 181.74c-10.4 0-18.84 8.44-18.84 18.84v56.88c0 .49-.03.97-.07 1.45h38.22c-.32-1.4-.49-2.87-.49-4.38v-53.95c0-10.4-8.43-18.84-18.82-18.84z" id="da"/><path d="M179.78 181.74c-10.4 0-18.84 8.44-18.84 18.84v56.88c0 .49-.03.97-.07 1.45h38.22c-.32-1.4-.49-2.87-.49-4.38v-53.95c0-10.4-8.43-18.84-18.82-18.84z" id="db"/><path d="M99.31 72.32c-15.03 0-27.22 12.19-27.22 27.22v158.51c0 .3-.03.58-.05.86h54.58c-.04-.48-.07-.96-.07-1.45V99.54c0-15.03-12.2-27.22-27.24-27.22z" id="dc"/><path d="M99.31 72.32c-15.03 0-27.22 12.19-27.22 27.22v158.51c0 .3-.03.58-.05.86h54.58c-.04-.48-.07-.96-.07-1.45V99.54c0-15.03-12.2-27.22-27.24-27.22z" id="dd"/><path d="M11.64 106.05c-4.16 0-8.12.95-11.64 2.62v150.24h38.92c-.01-.28-.04-.56-.04-.86V133.28c0-15.03-12.2-27.23-27.24-27.23z" id="de"/><path d="M11.64 106.05c-4.16 0-8.12.95-11.64 2.62v150.24h38.92c-.01-.28-.04-.56-.04-.86V133.28c0-15.03-12.2-27.23-27.24-27.23z" id="df"/><path d="M99.31 48.22c13.32 0 24.11-10.8 24.11-24.12 0-13.31-10.79-24.1-24.11-24.1C86 0 75.2 10.79 75.2 24.1c0 13.32 10.8 24.12 24.11 24.12" id="dg"/><path d="M99.31 48.22c13.32 0 24.11-10.8 24.11-24.12 0-13.31-10.79-24.1-24.11-24.1C86 0 75.2 10.79 75.2 24.1c0 13.32 10.8 24.12 24.11 24.12" id="dh"/></defs><use xlink:href="#da"/><use xlink:href="#da" fill-opacity="0" stroke-opacity="0"/><use xlink:href="#db" fill-opacity="0"/><use xlink:href="#db" fill-opacity="0" stroke-opacity="0"/><use xlink:href="#dc"/><use xlink:href="#dc" fill-opacity="0" stroke-opacity="0"/><use xlink:href="#dd" fill-opacity="0"/><use xlink:href="#dd" fill-opacity="0" stroke-opacity="0"/><use xlink:href="#de"/><use xlink:href="#de" fill-opacity="0" stroke-opacity="0"/><g fill-opacity="0"><use xlink:href="#df"/><use xlink:href="#df" stroke-opacity="0"/></g><use xlink:href="#dg"/><use xlink:href="#dg" fill-opacity="0" stroke-opacity="0"/><g fill-opacity="0"><use xlink:href="#dh"/><use xlink:href="#dh" stroke-opacity="0"/></g></symbol><symbol viewBox="0 0 76 19" id="right" xmlns="http://www.w3.org/2000/svg"><path fill-rule="evenodd" d="M74.677 9.122l-8.83-6.87a1.06 1.06 0 00-1.127-.156c-.408.168-.612.47-.612.909v5.203H2.03c-.3 0-.548.094-.74.282a.963.963 0 00-.29.72v.8a.96.96 0 00.29.72c.193.188.44.282.74.282h62.077v4.986c0 .418.205.72.612.908.408.168.784.104 1.128-.187l8.83-6.126A1.01 1.01 0 0075 9.84c0-.27-.107-.51-.322-.72z"/></symbol><symbol viewBox="0 0 24 24" id="search" xmlns="http://www.w3.org/2000/svg"><path fill-rule="evenodd" d="M21.742 20.566l-4.805-4.805A8.425 8.425 0 0010.423 2 8.423 8.423 0 002 10.422a8.423 8.423 0 008.423 8.423 8.38 8.38 0 005.335-1.905l4.805 4.8a.832.832 0 101.179-1.174zm-11.32-3.398c-3.723 0-6.75-3.026-6.75-6.746 0-3.72 3.027-6.751 6.75-6.751 3.72 0 6.751 3.03 6.751 6.75s-3.03 6.747-6.75 6.747z"/></symbol><symbol viewBox="0 0 20 21" id="ss1_b1" xmlns="http://www.w3.org/2000/svg"><path fill-rule="evenodd" d="M16.89 2H3.11A2.11 2.11 0 001 4.108v13.78C1 19.054 1.946 20 3.11 20h13.78c1.164 0 2.11-.946 2.11-2.11V4.11C19 2.946 18.054 2 16.89 2zm.704 15.89a.704.704 0 01-.703.703h-4.008v-5.73h2.172l.36-2.18h-2.532V9.171c0-.597.458-1.054 1.054-1.054h1.442v-2.18h-1.442a3.234 3.234 0 00-3.233 3.24v1.506h-2.11v2.18h2.11v5.73H3.109a.704.704 0 01-.703-.703V4.109c0-.388.316-.704.703-.704h13.782c.387 0 .703.316.703.704v13.78z"/></symbol><symbol viewBox="0 0 20 21" id="ss2_b1" xmlns="http://www.w3.org/2000/svg"><path fill-rule="evenodd" d="M13.771 2H6.23A5.235 5.235 0 001 7.227v7.543a5.235 5.235 0 005.229 5.228h7.542A5.235 5.235 0 0019 14.771V7.228A5.235 5.235 0 0013.771 2zm3.823 12.77a3.827 3.827 0 01-3.823 3.823H6.23a3.827 3.827 0 01-3.823-3.822V7.228A3.827 3.827 0 016.23 3.405h7.542a3.827 3.827 0 013.823 3.823v7.543zM10 6.149A4.857 4.857 0 005.148 11 4.857 4.857 0 0010 15.851a4.857 4.857 0 004.851-4.852A4.857 4.857 0 0010 6.148zm0 8.297A3.45 3.45 0 016.555 11 3.45 3.45 0 0110 7.554a3.45 3.45 0 013.445 3.445A3.45 3.45 0 0110 14.445zm4.922-9.07a.703.703 0 110 1.405.703.703 0 010-1.406z"/></symbol><symbol viewBox="0 0 25 21" id="ss3_b1" xmlns="http://www.w3.org/2000/svg"><path fill-rule="evenodd" d="M21.39 4.898l-.011-.043a4.681 4.681 0 002.02-2.553 9.368 9.368 0 01-2.922 1.125C19.653 2.543 18.554 2 17.254 2c-2.491 0-4.555 2.031-4.555 4.544 0 .357.05.707.13 1.038v.043C9.114 7.41 5.753 5.51 3.546 2.778c-.387.672-.602 1.632-.602 2.466 0 1.299.766 3.037 1.977 3.851v.087c-.723-.03-1.464-.531-2.063-.865 0 .02.027.043.027.063 0 2.205 1.604 4.106 3.669 4.523a5.43 5.43 0 01-1.247.173c-.292 0-.583-.077-.859-.13.575 1.807 2.234 2.986 4.211 2.986v.043c-1.538 1.201-3.488 2.034-5.586 2.034-.364 0-.816-.043-1.074-.087C3.995 19.213 6.368 20 8.918 20c8.3 0 12.848-6.88 12.848-12.894V6.5c.882-.642 1.63-1.51 2.234-2.423 0 0-1.584.756-2.61.822zm-1.343 2.207a11.44 11.44 0 01-.73 3.943 11.55 11.55 0 01-2.149 3.612c-1.448 1.646-4.055 3.608-8.25 3.608-.123 0-.246-.002-.37-.006.406-.237.795-.5 1.165-.79l.666-.519v-2.751l-.708-.009a1.418 1.418 0 01-1.398-1.423v-1.415l-.929-.211a.907.907 0 01-.703-.886V9.052l-.022-.882-.764-.514a3.53 3.53 0 01-.843-1.112c2.256 1.657 4.934 2.648 7.718 2.808l1.817.104V7.377l-.047-.2a2.767 2.767 0 01-.082-.634c0-.746.295-1.45.831-1.982a2.83 2.83 0 012.005-.831c.761 0 1.424.297 1.97.882l.438.47.053.206.01.043.322 1.25v.524z"/></symbol><symbol viewBox="0 0 23 21" id="ss4_b1" xmlns="http://www.w3.org/2000/svg"><path fill-rule="evenodd" d="M21.196 6.465a6.956 6.956 0 00-2.22-2.594C17.266 2.647 14.853 1.999 12 1.999c-2.854 0-5.266.648-6.976 1.872a6.956 6.956 0 00-2.22 2.594C2.27 7.546 2 8.805 2 10.205c0 3.031 1.261 5.35 3.657 6.744-.332 1.158-.762 1.86-.766 1.867l-.741 1.181L5.554 20h.017c.443 0 2.477-.094 4.13-1.738.73.1 1.5.151 2.299.151 2.853 0 5.266-.647 6.976-1.872a6.951 6.951 0 002.22-2.593c.533-1.082.804-2.34.804-3.741 0-1.401-.27-2.66-.804-3.741zm-3.135 8.82c-1.442 1.033-3.538 1.579-6.061 1.579-.867 0-1.694-.066-2.458-.194l-.435-.073-.288.33a4.387 4.387 0 01-1.94 1.295c.158-.42.318-.925.446-1.501l.133-.593-.55-.269c-2.22-1.085-3.346-2.987-3.346-5.653 0-2.242.8-3.951 2.377-5.08C7.38 4.095 9.477 3.549 12 3.549s4.619.546 6.061 1.579c1.577 1.128 2.377 2.837 2.377 5.079 0 2.24-.8 3.95-2.377 5.079z"/></symbol><symbol viewBox="0 0 21 48" id="svg_title" xmlns="http://www.w3.org/2000/svg"><path fill-rule="evenodd" d="M2 44.75c.552 0 1 .503 1 1.125C3 46.496 2.552 47 2 47s-1-.504-1-1.125c0-.622.448-1.125 1-1.125zm9-6.125c.552 0 1 .504 1 1.125s-.448 1.125-1 1.125-1-.504-1-1.125.448-1.125 1-1.125zM19 31c.552 0 1 .504 1 1.125s-.448 1.125-1 1.125-1-.504-1-1.125S18.448 31 19 31zM1 2h2v39.375H1V2zm9 0h2v32.875h-2V2zm8 0h2v25.625h-2V2z"/></symbol><symbol viewBox="0 0 50 14" id="swiper_button_next" xmlns="http://www.w3.org/2000/svg"><path fill-rule="evenodd" d="M48.79 6.747l-5.727-4.58a.672.672 0 00-.731-.103c-.265.111-.397.313-.397.605v3.47H1.669a.65.65 0 00-.48.187.65.65 0 00-.189.48v.534a.65.65 0 00.188.48.652.652 0 00.48.187h40.267v3.324c0 .28.133.48.397.606.265.112.508.07.731-.125l5.728-4.084a.681.681 0 000-.98z"/></symbol><symbol viewBox="0 0 50 14" id="swiper_button_prev" xmlns="http://www.w3.org/2000/svg"><path fill-rule="evenodd" d="M1.21 6.747l5.727-4.58a.672.672 0 01.731-.103c.265.111.397.313.397.605v3.47h40.266a.65.65 0 01.48.187.65.65 0 01.189.48v.534a.65.65 0 01-.188.48.652.652 0 01-.48.187H8.064v3.324c0 .28-.133.48-.397.606-.265.112-.508.07-.732-.125L1.21 7.728a.681.681 0 010-.98z"/></symbol></svg>