<?xml version="1.0" encoding="utf-8"?><svg xmlns="http://www.w3.org/2000/svg" xmlns:xlink="http://www.w3.org/1999/xlink"><symbol viewBox="0 0 18 21" id="activ_button" xmlns="http://www.w3.org/2000/svg"><path fill-rule="evenodd" d="M2 18a1 1 0 110 2 1 1 0 010-2zm7-4a1 1 0 110 2 1 1 0 010-2zm7-2a1 1 0 110 2 1 1 0 010-2zM1 1h2v15H1V1zm7 0h2v11H8V1zm7 0h2v9h-2V1z"/></symbol><symbol viewBox="0 0 26 23" id="basket" xmlns="http://www.w3.org/2000/svg"><path fill-rule="evenodd" d="M19.424 16.55c-1.513 0-2.744 1.222-2.744 2.724a2.738 2.738 0 002.744 2.725c1.513 0 2.744-1.222 2.744-2.725 0-1.502-1.231-2.725-2.744-2.725zm0 3.814a1.096 1.096 0 01-1.098-1.09c0-.6.493-1.09 1.098-1.09.605 0 1.098.49 1.098 1.09 0 .601-.493 1.09-1.098 1.09zm4.407-14.346a.825.825 0 00-.648-.313H7.081l-.74-3.078a.822.822 0 00-.801-.628H2.823A.82.82 0 002 2.816c0 .451.369.818.823.818H4.89L7.565 14.75c.089.368.42.627.8.627H21.18a.822.822 0 00.8-.62l2.002-8.039a.815.815 0 00-.15-.7zm-3.295 7.725H9.016L7.475 7.34H22.13l-1.595 6.403zM9.464 16.549c-1.514 0-2.745 1.223-2.745 2.725 0 1.503 1.231 2.725 2.745 2.725a2.738 2.738 0 002.743-2.725 2.737 2.737 0 00-2.743-2.725zm0 3.815a1.095 1.095 0 01-1.098-1.09c0-.6.492-1.09 1.098-1.09.605 0 1.097.49 1.097 1.09 0 .601-.492 1.09-1.097 1.09z"/></symbol><symbol viewBox="0 0 24 24" id="search" xmlns="http://www.w3.org/2000/svg"><path fill-rule="evenodd" d="M21.742 20.566l-4.805-4.805A8.425 8.425 0 0010.423 2 8.423 8.423 0 002 10.422a8.423 8.423 0 008.423 8.423 8.38 8.38 0 005.335-1.905l4.805 4.8a.832.832 0 101.179-1.174zm-11.32-3.398c-3.723 0-6.75-3.026-6.75-6.746 0-3.72 3.027-6.751 6.75-6.751 3.72 0 6.751 3.03 6.751 6.75s-3.03 6.747-6.75 6.747z"/></symbol><symbol viewBox="0 0 20 21" id="ss1_b1" xmlns="http://www.w3.org/2000/svg"><path fill-rule="evenodd" d="M16.89 2H3.11A2.11 2.11 0 001 4.108v13.78C1 19.054 1.946 20 3.11 20h13.78c1.164 0 2.11-.946 2.11-2.11V4.11C19 2.946 18.054 2 16.89 2zm.704 15.89a.704.704 0 01-.703.703h-4.008v-5.73h2.172l.36-2.18h-2.532V9.171c0-.597.458-1.054 1.054-1.054h1.442v-2.18h-1.442a3.234 3.234 0 00-3.233 3.24v1.506h-2.11v2.18h2.11v5.73H3.109a.704.704 0 01-.703-.703V4.109c0-.388.316-.704.703-.704h13.782c.387 0 .703.316.703.704v13.78z"/></symbol><symbol viewBox="0 0 20 21" id="ss2_b1" xmlns="http://www.w3.org/2000/svg"><path fill-rule="evenodd" d="M13.771 2H6.23A5.235 5.235 0 001 7.227v7.543a5.235 5.235 0 005.229 5.228h7.542A5.235 5.235 0 0019 14.771V7.228A5.235 5.235 0 0013.771 2zm3.823 12.77a3.827 3.827 0 01-3.823 3.823H6.23a3.827 3.827 0 01-3.823-3.822V7.228A3.827 3.827 0 016.23 3.405h7.542a3.827 3.827 0 013.823 3.823v7.543zM10 6.149A4.857 4.857 0 005.148 11 4.857 4.857 0 0010 15.851a4.857 4.857 0 004.851-4.852A4.857 4.857 0 0010 6.148zm0 8.297A3.45 3.45 0 016.555 11 3.45 3.45 0 0110 7.554a3.45 3.45 0 013.445 3.445A3.45 3.45 0 0110 14.445zm4.922-9.07a.703.703 0 110 1.405.703.703 0 010-1.406z"/></symbol><symbol viewBox="0 0 25 21" id="ss3_b1" xmlns="http://www.w3.org/2000/svg"><path fill-rule="evenodd" d="M21.39 4.898l-.011-.043a4.681 4.681 0 002.02-2.553 9.368 9.368 0 01-2.922 1.125C19.653 2.543 18.554 2 17.254 2c-2.491 0-4.555 2.031-4.555 4.544 0 .357.05.707.13 1.038v.043C9.114 7.41 5.753 5.51 3.546 2.778c-.387.672-.602 1.632-.602 2.466 0 1.299.766 3.037 1.977 3.851v.087c-.723-.03-1.464-.531-2.063-.865 0 .02.027.043.027.063 0 2.205 1.604 4.106 3.669 4.523a5.43 5.43 0 01-1.247.173c-.292 0-.583-.077-.859-.13.575 1.807 2.234 2.986 4.211 2.986v.043c-1.538 1.201-3.488 2.034-5.586 2.034-.364 0-.816-.043-1.074-.087C3.995 19.213 6.368 20 8.918 20c8.3 0 12.848-6.88 12.848-12.894V6.5c.882-.642 1.63-1.51 2.234-2.423 0 0-1.584.756-2.61.822zm-1.343 2.207a11.44 11.44 0 01-.73 3.943 11.55 11.55 0 01-2.149 3.612c-1.448 1.646-4.055 3.608-8.25 3.608-.123 0-.246-.002-.37-.006.406-.237.795-.5 1.165-.79l.666-.519v-2.751l-.708-.009a1.418 1.418 0 01-1.398-1.423v-1.415l-.929-.211a.907.907 0 01-.703-.886V9.052l-.022-.882-.764-.514a3.53 3.53 0 01-.843-1.112c2.256 1.657 4.934 2.648 7.718 2.808l1.817.104V7.377l-.047-.2a2.767 2.767 0 01-.082-.634c0-.746.295-1.45.831-1.982a2.83 2.83 0 012.005-.831c.761 0 1.424.297 1.97.882l.438.47.053.206.01.043.322 1.25v.524z"/></symbol><symbol viewBox="0 0 23 21" id="ss4_b1" xmlns="http://www.w3.org/2000/svg"><path fill-rule="evenodd" d="M21.196 6.465a6.956 6.956 0 00-2.22-2.594C17.266 2.647 14.853 1.999 12 1.999c-2.854 0-5.266.648-6.976 1.872a6.956 6.956 0 00-2.22 2.594C2.27 7.546 2 8.805 2 10.205c0 3.031 1.261 5.35 3.657 6.744-.332 1.158-.762 1.86-.766 1.867l-.741 1.181L5.554 20h.017c.443 0 2.477-.094 4.13-1.738.73.1 1.5.151 2.299.151 2.853 0 5.266-.647 6.976-1.872a6.951 6.951 0 002.22-2.593c.533-1.082.804-2.34.804-3.741 0-1.401-.27-2.66-.804-3.741zm-3.135 8.82c-1.442 1.033-3.538 1.579-6.061 1.579-.867 0-1.694-.066-2.458-.194l-.435-.073-.288.33a4.387 4.387 0 01-1.94 1.295c.158-.42.318-.925.446-1.501l.133-.593-.55-.269c-2.22-1.085-3.346-2.987-3.346-5.653 0-2.242.8-3.951 2.377-5.08C7.38 4.095 9.477 3.549 12 3.549s4.619.546 6.061 1.579c1.577 1.128 2.377 2.837 2.377 5.079 0 2.24-.8 3.95-2.377 5.079z"/></symbol><symbol viewBox="0 0 1920 605.61" id="svg_bacground_footer" xmlns="http://www.w3.org/2000/svg"><style>.hst0{fill:#21254c}</style><path class="hst0" d="M1778.86 323.41v38.35c0 7.39 5.99 13.38 13.38 13.38 7.39 0 13.38-5.99 13.38-13.38v-40.43c0-6.75 5.47-12.22 12.22-12.22 6.75 0 12.23 5.47 12.23 12.22v112.22c0 10.68 8.66 19.35 19.34 19.35 10.69 0 19.35-8.67 19.35-19.35V320.91c0-6.52 5.29-11.8 11.8-11.8 6.52 0 11.81 5.28 11.81 11.8v88.67c0 10.68 8.66 19.35 19.34 19.35 2.97 0 5.77-.67 8.29-1.86V0h-329.34v309.11h173.9c7.9 0 14.3 6.4 14.3 14.3m70.55 176.12c-9.46 0-17.13 7.67-17.13 17.13 0 9.46 7.67 17.14 17.13 17.14 9.47 0 17.14-7.68 17.14-17.14s-7.67-17.13-17.14-17.13M203.42 545.86c0-10.65-8.63-19.29-19.28-19.29s-19.29 8.64-19.29 19.29v58.26c0 .51-.03 1-.07 1.49h39.14c-.32-1.44-.5-2.94-.5-4.48zm-73.8-103.48c0-15.4-12.49-27.89-27.89-27.89s-27.89 12.49-27.89 27.89v162.35c0 .3-.03.59-.05.88h55.9c-.04-.49-.07-.98-.07-1.49zm-89.8 34.55c0-15.4-12.49-27.89-27.89-27.89-4.27 0-8.32.97-11.93 2.68v153.89h39.86c-.01-.29-.04-.58-.04-.88zm61.91-87.13c13.64 0 24.69-11.06 24.69-24.7 0-13.64-11.05-24.69-24.69-24.69s-24.7 11.05-24.7 24.69 11.06 24.7 24.7 24.7"/></symbol><symbol viewBox="0 0 21 48" id="svg_title" xmlns="http://www.w3.org/2000/svg"><path fill-rule="evenodd" d="M2 44.75c.552 0 1 .503 1 1.125C3 46.496 2.552 47 2 47s-1-.504-1-1.125c0-.622.448-1.125 1-1.125zm9-6.125c.552 0 1 .504 1 1.125s-.448 1.125-1 1.125-1-.504-1-1.125.448-1.125 1-1.125zM19 31c.552 0 1 .504 1 1.125s-.448 1.125-1 1.125-1-.504-1-1.125S18.448 31 19 31zM1 2h2v39.375H1V2zm9 0h2v32.875h-2V2zm8 0h2v25.625h-2V2z"/></symbol></svg>