<svg xmlns="http://www.w3.org/2000/svg"
 xmlns:xlink="http://www.w3.org/1999/xlink"
 width="18px" height="21px"  viewBox="0 0 18 21">
<path fill-rule="evenodd"  fill="#fd2954"
 d="M2.0,17.999926 C2.5522766,17.999926 2.9999695,18.447529 2.9999695,18.999804 C2.9999695,19.55208 2.5522766,19.999681 2.0,19.999681 C1.4476929,19.999681 1.0,19.55208 1.0,18.999804 C1.0,18.447529 1.4476929,17.999926 2.0,17.999926 ZM9.0,13.999747 C9.552277,13.999747 9.9999695,14.447682 9.9999695,14.999958 C9.9999695,15.552234 9.552277,15.999837 9.0,15.999837 C8.447693,15.999837 7.999878,15.552234 7.999878,14.999958 C7.999878,14.447682 8.447693,13.999747 9.0,13.999747 ZM16.0,11.999991 C16.552185,11.999991 17.0,12.447594 17.0,12.999869 C17.0,13.552145 16.552185,13.999747 16.0,13.999747 C15.447693,13.999747 14.999908,13.552145 14.999908,12.999869 C14.999908,12.447594 15.447693,11.999991 16.0,11.999991 ZM1.0,1.0 C1.0,1.0 2.9999695,1.0 2.9999695,1.0 C2.9999695,1.0 2.9999695,15.999837 2.9999695,15.999837 C2.9999695,15.999837 1.0,15.999837 1.0,15.999837 C1.0,15.999837 1.0,1.0 1.0,1.0 ZM7.999878,1.0 C7.999878,1.0 9.9999695,1.0 9.9999695,1.0 C9.9999695,1.0 9.9999695,11.999991 9.9999695,11.999991 C9.9999695,11.999991 7.999878,11.999991 7.999878,11.999991 C7.999878,11.999991 7.999878,1.0 7.999878,1.0 ZM14.999908,1.0 C14.999908,1.0 17.0,1.0 17.0,1.0 C17.0,1.0 17.0,9.999902 17.0,9.999902 C17.0,9.999902 14.999908,9.999902 14.999908,9.999902 C14.999908,9.999902 14.999908,1.0 14.999908,1.0 Z"/>
</svg>