<svg xmlns="http://www.w3.org/2000/svg"
 xmlns:xlink="http://www.w3.org/1999/xlink"
 width="26px" height="23px"  viewBox="0 0 26 23">
<path fill-rule="evenodd"  fill="#ffffff"
 d="M19.424072,16.549427 C17.91101,16.549427 16.680176,17.77161 16.680176,19.273922 C16.680176,20.776562 17.91101,21.99908 19.424072,21.99908 C20.937012,21.99908 22.167969,20.776562 22.167969,19.273922 C22.167969,17.77161 20.937012,16.549427 19.424072,16.549427 ZM19.424072,20.364185 C18.818726,20.364185 18.326416,19.875046 18.326416,19.273922 C18.326416,18.67313 18.818726,18.18399 19.424072,18.18399 C20.029297,18.18399 20.521606,18.67313 20.521606,19.273922 C20.521606,19.875046 20.029297,20.364185 19.424072,20.364185 ZM23.831299,6.017975 C23.675415,5.820259 23.436523,5.7049522 23.183228,5.7049522 C23.183228,5.7049522 7.0811768,5.7049522 7.0811768,5.7049522 C7.0811768,5.7049522 6.340332,2.6265602 6.340332,2.6265602 C6.251709,2.258709 5.920532,1.9988556 5.539673,1.9988556 C5.539673,1.9988556 2.82312,1.9988556 2.82312,1.9988556 C2.3685303,1.9988556 2.0,2.3647118 2.0,2.8163033 C2.0,3.2672272 2.3685303,3.6340828 2.82312,3.6340828 C2.82312,3.6340828 4.8898926,3.6340828 4.8898926,3.6340828 C4.8898926,3.6340828 7.5653076,14.750378 7.5653076,14.750378 C7.6538086,15.117897 7.9849854,15.377087 8.365845,15.377087 C8.365845,15.377087 21.180176,15.377087 21.180176,15.377087 C21.558594,15.377087 21.888306,15.1215515 21.979248,14.756691 C21.979248,14.756691 23.9823,6.7184525 23.9823,6.7184525 C24.042969,6.4742165 23.987183,6.2166862 23.831299,6.017975 ZM20.536133,13.742523 C20.536133,13.742523 9.015625,13.742523 9.015625,13.742523 C9.015625,13.742523 7.4746094,7.3395157 7.4746094,7.3395157 C7.4746094,7.3395157 22.131348,7.3395157 22.131348,7.3395157 C22.131348,7.3395157 20.536133,13.742523 20.536133,13.742523 ZM9.463501,16.549427 C7.9504395,16.549427 6.7194824,17.77161 6.7194824,19.273922 C6.7194824,20.776562 7.9504395,21.99908 9.463501,21.99908 C10.9765625,21.99908 12.207397,20.776562 12.207397,19.273922 C12.207397,17.77161 10.9765625,16.549427 9.463501,16.549427 ZM9.463501,20.364185 C8.858154,20.364185 8.365845,19.875046 8.365845,19.273922 C8.365845,18.67313 8.858154,18.18399 9.463501,18.18399 C10.068726,18.18399 10.561035,18.67313 10.561035,19.273922 C10.561035,19.875046 10.068726,20.364185 9.463501,20.364185 Z"/>
</svg>