<?xml version="1.0" encoding="UTF-8" standalone="no"?>
<!DOCTYPE svg PUBLIC "-//W3C//DTD SVG 1.1//EN" "http://www.w3.org/Graphics/SVG/1.1/DTD/svg11.dtd">
<svg version="1.1" xmlns="http://www.w3.org/2000/svg" xmlns:xlink="http://www.w3.org/1999/xlink" preserveAspectRatio="xMidYMid meet" viewBox="-0.9997254567863099 -1.0042722588447717 203.08629263596274 262.9167517944412" width="199.09" height="258.92"><defs><path d="M179.78 181.74C169.38 181.74 160.94 190.18 160.94 200.58C160.94 206.27 160.94 251.77 160.94 257.46C160.94 257.95 160.91 258.43 160.87 258.91C164.7 258.91 195.27 258.91 199.09 258.91C198.77 257.51 198.6 256.04 198.6 254.53C198.6 243.74 198.6 211.37 198.6 200.58C198.6 190.18 190.17 181.74 179.78 181.74Z" id="b5004vYZyP"></path><path d="M179.78 181.74C169.38 181.74 160.94 190.18 160.94 200.58C160.94 206.27 160.94 251.77 160.94 257.46C160.94 257.95 160.91 258.43 160.87 258.91C164.7 258.91 195.27 258.91 199.09 258.91C198.77 257.51 198.6 256.04 198.6 254.53C198.6 243.74 198.6 211.37 198.6 200.58C198.6 190.18 190.17 181.74 179.78 181.74Z" id="c2P1KnoFLJ"></path><path d="M99.31 72.32C84.28 72.32 72.09 84.51 72.09 99.54C72.09 102.91 72.09 119.71 72.09 149.94C72.09 214.81 72.09 250.85 72.09 258.05C72.09 258.35 72.06 258.63 72.04 258.91C77.5 258.91 121.16 258.91 126.62 258.91C126.58 258.43 126.55 257.95 126.55 257.46C126.55 225.88 126.55 131.13 126.55 99.54C126.55 84.51 114.35 72.32 99.31 72.32Z" id="b1QAlBsx4"></path><path d="M99.31 72.32C84.28 72.32 72.09 84.51 72.09 99.54C72.09 102.91 72.09 119.71 72.09 149.94C72.09 214.81 72.09 250.85 72.09 258.05C72.09 258.35 72.06 258.63 72.04 258.91C77.5 258.91 121.16 258.91 126.62 258.91C126.58 258.43 126.55 257.95 126.55 257.46C126.55 225.88 126.55 131.13 126.55 99.54C126.55 84.51 114.35 72.32 99.31 72.32Z" id="a2PCnFgQs"></path><path d="M11.64 106.05C7.48 106.05 3.52 107 0 108.67C0 118.68 0 168.77 0 258.91C23.35 258.91 36.32 258.91 38.92 258.91C38.91 258.63 38.88 258.35 38.88 258.05C38.88 233.1 38.88 158.23 38.88 133.28C38.88 118.25 26.68 106.05 11.64 106.05Z" id="eVDtQR3vB"></path><path d="M11.64 106.05C7.48 106.05 3.52 107 0 108.67C0 118.68 0 168.77 0 258.91C23.35 258.91 36.32 258.91 38.92 258.91C38.91 258.63 38.88 258.35 38.88 258.05C38.88 233.1 38.88 158.23 38.88 133.28C38.88 118.25 26.68 106.05 11.64 106.05Z" id="a1wwJVTXfN"></path><path d="M99.31 48.22C112.63 48.22 123.42 37.42 123.42 24.1C123.42 10.79 112.63 0 99.31 0C86 0 75.2 10.79 75.2 24.1C75.2 37.42 86 48.22 99.31 48.22" id="b3VA38Ms4R"></path><path d="M99.31 48.22C112.63 48.22 123.42 37.42 123.42 24.1C123.42 10.79 112.63 0 99.31 0C86 0 75.2 10.79 75.2 24.1C75.2 37.42 86 48.22 99.31 48.22" id="a3iDPVomo4"></path></defs><g><g><use xlink:href="#b5004vYZyP" opacity="1" fill="#21254c" fill-opacity="1"></use><g><use xlink:href="#b5004vYZyP" opacity="1" fill-opacity="0" stroke="#000000" stroke-width="1" stroke-opacity="0"></use></g></g><g><use xlink:href="#c2P1KnoFLJ" opacity="1" fill="#000000" fill-opacity="0"></use><g><use xlink:href="#c2P1KnoFLJ" opacity="1" fill-opacity="0" stroke="#000000" stroke-width="1" stroke-opacity="0"></use></g></g><g><use xlink:href="#b1QAlBsx4" opacity="1" fill="#21254c" fill-opacity="1"></use><g><use xlink:href="#b1QAlBsx4" opacity="1" fill-opacity="0" stroke="#000000" stroke-width="1" stroke-opacity="0"></use></g></g><g><use xlink:href="#a2PCnFgQs" opacity="1" fill="#000000" fill-opacity="0"></use><g><use xlink:href="#a2PCnFgQs" opacity="1" fill-opacity="0" stroke="#000000" stroke-width="1" stroke-opacity="0"></use></g></g><g><use xlink:href="#eVDtQR3vB" opacity="1" fill="#21254c" fill-opacity="1"></use><g><use xlink:href="#eVDtQR3vB" opacity="1" fill-opacity="0" stroke="#000000" stroke-width="1" stroke-opacity="0"></use></g></g><g><use xlink:href="#a1wwJVTXfN" opacity="1" fill="#000000" fill-opacity="0"></use><g><use xlink:href="#a1wwJVTXfN" opacity="1" fill-opacity="0" stroke="#000000" stroke-width="1" stroke-opacity="0"></use></g></g><g><use xlink:href="#b3VA38Ms4R" opacity="1" fill="#21254c" fill-opacity="1"></use><g><use xlink:href="#b3VA38Ms4R" opacity="1" fill-opacity="0" stroke="#000000" stroke-width="1" stroke-opacity="0"></use></g></g><g><use xlink:href="#a3iDPVomo4" opacity="1" fill="#000000" fill-opacity="0"></use><g><use xlink:href="#a3iDPVomo4" opacity="1" fill-opacity="0" stroke="#000000" stroke-width="1" stroke-opacity="0"></use></g></g></g></svg>