<?xml version="1.0" encoding="UTF-8" standalone="no"?>
<!DOCTYPE svg PUBLIC "-//W3C//DTD SVG 1.1//EN" "http://www.w3.org/Graphics/SVG/1.1/DTD/svg11.dtd">
<svg version="1.1" xmlns="http://www.w3.org/2000/svg" xmlns:xlink="http://www.w3.org/1999/xlink" preserveAspectRatio="xMidYMid meet" viewBox="-0.995231584683097 -1 333.00827265071575 532.817886098314" width="329.01" height="528.82"><defs><path d="M188.02 323.08C188.02 346.07 188.02 358.84 188.02 361.4C188.02 368.78 194 374.76 201.38 374.76C208.76 374.76 214.75 368.78 214.75 361.4C214.75 357.36 214.75 325.05 214.75 321.01C214.75 314.26 220.21 308.8 226.96 308.8C233.7 308.8 239.17 314.26 239.17 321.01C239.17 332.22 239.17 421.9 239.17 433.11C239.17 443.78 247.82 452.44 258.49 452.44C269.17 452.44 277.82 443.78 277.82 433.11C277.82 430.73 277.82 418.8 277.82 397.33C277.82 351.28 277.82 325.7 277.82 320.59C277.82 314.07 283.11 308.8 289.61 308.8C296.13 308.8 301.41 314.07 301.41 320.59C301.41 329.44 301.41 400.31 301.41 409.17C301.41 419.84 310.06 428.5 320.73 428.5C323.7 428.5 326.5 427.83 329.01 426.64C329.01 398.2 329.01 255.98 329.01 0L0 0L0 308.8C104.24 308.8 162.15 308.8 173.73 308.8C181.62 308.8 188.02 315.19 188.02 323.08" id="b2I1u76ofC"></path><path d="M261.56 494.58C252.11 494.58 244.45 502.24 244.45 511.7C244.45 521.15 252.11 528.82 261.56 528.82C271.02 528.82 278.68 521.15 278.68 511.7C278.68 502.24 271.02 494.58 261.56 494.58" id="b11ekzt2Jv"></path></defs><g><g><use xlink:href="#b2I1u76ofC" opacity="1" fill="#21254c" fill-opacity="1"></use><g><use xlink:href="#b2I1u76ofC" opacity="1" fill-opacity="0" stroke="#000000" stroke-width="1" stroke-opacity="0"></use></g></g><g><use xlink:href="#b11ekzt2Jv" opacity="1" fill="#21254c" fill-opacity="1"></use><g><use xlink:href="#b11ekzt2Jv" opacity="1" fill-opacity="0" stroke="#000000" stroke-width="1" stroke-opacity="0"></use></g></g></g></svg>