<svg xmlns="http://www.w3.org/2000/svg"
 xmlns:xlink="http://www.w3.org/1999/xlink"
 width="76px" height="19px"  viewBox="0 0 76 19">
<path fill-rule="evenodd"  fill="#ffffff"
 d="M74.67743,9.121826 C74.67743,9.121826 65.84717,2.2525635 65.84717,2.2525635 C65.503174,1.9814453 65.127686,1.9292603 64.72003,2.0960693 C64.31195,2.2635498 64.10779,2.565918 64.10779,3.0045776 C64.10779,3.0045776 64.10779,8.208008 64.10779,8.208008 C64.10779,8.208008 2.0308838,8.208008 2.0308838,8.208008 C1.7302856,8.208008 1.4832153,8.302063 1.2902222,8.489807 C1.0974121,8.677856 1.0004883,8.917786 1.0004883,9.210205 C1.0004883,9.210205 1.0004883,10.010376 1.0004883,10.010376 C1.0004883,10.302429 1.0970459,10.54303 1.2902222,10.730469 C1.4835205,10.917847 1.7305908,11.011902 2.0308838,11.011902 C2.0308838,11.011902 64.10779,11.011902 64.10779,11.011902 C64.10779,11.011902 64.10779,15.997986 64.10779,15.997986 C64.10779,16.416382 64.312744,16.71875 64.72003,16.905823 C65.12836,17.07367 65.50397,17.010193 65.84784,16.71875 C65.84784,16.71875 74.67822,10.592529 74.67822,10.592529 C74.89282,10.38385 74.99933,10.133667 74.99933,9.840881 C74.99933,9.570435 74.89209,9.330505 74.67743,9.121826 Z"/>
</svg>