<svg xmlns="http://www.w3.org/2000/svg"
 xmlns:xlink="http://www.w3.org/1999/xlink"
 width="24px" height="24px"  viewBox="0 0 24 24">
<path fill-rule="evenodd"  fill="#ffffff"
 d="M21.741821,20.56622 C21.741821,20.56622 16.93689,15.761223 16.93689,15.761223 C18.12793,14.308754 18.845825,12.449894 18.845825,10.421558 C18.845825,5.771744 15.072754,1.9988556 10.422852,1.9988556 C5.768921,1.9988556 1.9998779,5.771744 1.9998779,10.421558 C1.9998779,15.072372 5.768921,18.844929 10.422852,18.844929 C12.450195,18.844929 14.30603,18.13049 15.758057,16.939877 C15.758057,16.939877 20.56311,21.740887 20.56311,21.740887 C20.889404,22.0672 21.415527,22.0672 21.741821,21.740887 C22.068237,21.418892 22.068237,20.888214 21.741821,20.56622 ZM10.422852,17.168495 C6.6988525,17.168495 3.6723633,14.141609 3.6723633,10.421558 C3.6723633,6.7018394 6.6988525,3.670967 10.422852,3.670967 C14.142822,3.670967 17.173462,6.7018394 17.173462,10.421558 C17.173462,14.141609 14.142822,17.168495 10.422852,17.168495 Z"/>
</svg>