<svg xmlns="http://www.w3.org/2000/svg"
 xmlns:xlink="http://www.w3.org/1999/xlink"
 width="20px" height="21px"  viewBox="0 0 20 21">
<path fill-rule="evenodd"  fill="#b7bad2"
 d="M16.890625,1.9991455 C16.890625,1.9991455 3.109375,1.9991455 3.109375,1.9991455 C1.946167,1.9991455 1.0,2.9451904 1.0,4.108551 C1.0,4.108551 1.0,17.889862 1.0,17.889862 C1.0,19.052917 1.946167,19.998962 3.109375,19.998962 C3.109375,19.998962 16.890625,19.998962 16.890625,19.998962 C18.053589,19.998962 19.0,19.052917 19.0,17.889862 C19.0,17.889862 19.0,4.108551 19.0,4.108551 C19.0,2.9451904 18.053589,1.9991455 16.890625,1.9991455 ZM17.59375,17.889862 C17.59375,18.277344 17.27832,18.593018 16.890625,18.593018 C16.890625,18.593018 12.88269,18.593018 12.88269,18.593018 C12.88269,18.593018 12.88269,12.862549 12.88269,12.862549 C12.88269,12.862549 15.055054,12.862549 15.055054,12.862549 C15.055054,12.862549 15.4140625,10.683044 15.4140625,10.683044 C15.4140625,10.683044 12.88269,10.683044 12.88269,10.683044 C12.88269,10.683044 12.88269,9.171082 12.88269,9.171082 C12.88269,8.57428 13.340576,8.116699 13.937378,8.116699 C13.937378,8.116699 15.378784,8.116699 15.378784,8.116699 C15.378784,8.116699 15.378784,5.936859 15.378784,5.936859 C15.378784,5.936859 13.937378,5.936859 13.937378,5.936859 C12.147217,5.936859 10.703735,7.3866577 10.703735,9.177063 C10.703735,9.177063 10.703735,10.683044 10.703735,10.683044 C10.703735,10.683044 8.59375,10.683044 8.59375,10.683044 C8.59375,10.683044 8.59375,12.862549 8.59375,12.862549 C8.59375,12.862549 10.703735,12.862549 10.703735,12.862549 C10.703735,12.862549 10.703735,18.593018 10.703735,18.593018 C10.703735,18.593018 3.109375,18.593018 3.109375,18.593018 C2.7216797,18.593018 2.40625,18.277344 2.40625,17.889862 C2.40625,17.889862 2.40625,4.108551 2.40625,4.108551 C2.40625,3.7207642 2.7216797,3.405426 3.109375,3.405426 C3.109375,3.405426 16.890625,3.405426 16.890625,3.405426 C17.27832,3.405426 17.59375,3.7207642 17.59375,4.108551 C17.59375,4.108551 17.59375,17.889862 17.59375,17.889862 Z"/>
</svg>