<svg xmlns="http://www.w3.org/2000/svg"
 xmlns:xlink="http://www.w3.org/1999/xlink"
 width="20px" height="21px"  viewBox="0 0 20 21">
<path fill-rule="evenodd"  fill="#b7bad2"
 d="M13.77124,1.9992065 C13.77124,1.9992065 6.2286377,1.9992065 6.2286377,1.9992065 C3.345581,1.9992065 1.0,4.345215 1.0,7.2282104 C1.0,7.2282104 1.0,14.77063 1.0,14.77063 C1.0,17.653625 3.345581,19.999329 6.2286377,19.999329 C6.2286377,19.999329 13.77124,19.999329 13.77124,19.999329 C16.654419,19.999329 19.0,17.653625 19.0,14.77063 C19.0,14.77063 19.0,7.2282104 19.0,7.2282104 C19.0,4.345215 16.654419,1.9992065 13.77124,1.9992065 ZM17.59375,14.77063 C17.59375,16.878052 15.878906,18.593079 13.77124,18.593079 C13.77124,18.593079 6.2286377,18.593079 6.2286377,18.593079 C4.1209717,18.593079 2.40625,16.878052 2.40625,14.77063 C2.40625,14.77063 2.40625,7.2282104 2.40625,7.2282104 C2.40625,5.120117 4.1209717,3.4054565 6.2286377,3.4054565 C6.2286377,3.4054565 13.77124,3.4054565 13.77124,3.4054565 C15.878906,3.4054565 17.59375,5.120117 17.59375,7.2282104 C17.59375,7.2282104 17.59375,14.77063 17.59375,14.77063 ZM10.0,6.147583 C7.324829,6.147583 5.1483154,8.324097 5.1483154,10.999084 C5.1483154,13.674438 7.324829,15.850586 10.0,15.850586 C12.675171,15.850586 14.85144,13.674438 14.85144,10.999084 C14.85144,8.324097 12.675171,6.147583 10.0,6.147583 ZM10.0,14.444702 C8.10022,14.444702 6.5545654,12.89917 6.5545654,10.999084 C6.5545654,9.09967 8.10022,7.553528 10.0,7.553528 C11.899658,7.553528 13.44519,9.09967 13.44519,10.999084 C13.44519,12.89917 11.899658,14.444702 10.0,14.444702 ZM14.921875,5.3743286 C15.310181,5.3743286 15.625,5.689026 15.625,6.0771484 C15.625,6.465576 15.310181,6.7805786 14.921875,6.7805786 C14.533447,6.7805786 14.21875,6.465576 14.21875,6.0771484 C14.21875,5.689026 14.533447,5.3743286 14.921875,5.3743286 Z"/>
</svg>