<svg xmlns="http://www.w3.org/2000/svg"
 xmlns:xlink="http://www.w3.org/1999/xlink"
 width="25px" height="21px"  viewBox="0 0 25 21">
<path fill-rule="evenodd"  fill="#fd2954"
 d="M21.38977,4.897644 C21.38977,4.897644 21.378906,4.8547974 21.378906,4.8547974 C22.311035,4.2922363 23.063599,3.364746 23.398438,2.302063 C22.52539,2.824768 21.503906,3.2215576 20.476562,3.427246 C19.65271,2.5430298 18.553589,1.9990234 17.253906,1.9990234 C14.762695,1.9990234 12.699097,4.0303345 12.699097,6.5425415 C12.699097,6.9000854 12.74939,7.25 12.828125,7.5809326 C12.828125,7.5809326 12.828125,7.6244507 12.828125,7.6244507 C9.115234,7.4104614 5.75354,5.5093994 3.546875,2.777954 C3.159546,3.449829 2.9453125,4.4101562 2.9453125,5.2442627 C2.9453125,6.5425415 3.7106934,8.280762 4.921875,9.095215 C4.921875,9.095215 4.921875,9.181946 4.921875,9.181946 C4.1987305,9.152344 3.4580078,8.65094 2.859375,8.31665 C2.859375,8.336609 2.88562,8.360168 2.88562,8.380432 C2.88562,10.5849 4.4901123,12.485962 6.5546875,12.903015 C6.194824,12.998718 5.6881104,13.076111 5.3084717,13.076111 C5.0164795,13.076111 4.7248535,12.999023 4.4492188,12.946533 C5.0235596,14.753235 6.6834717,15.93219 8.660156,15.93219 C8.660156,15.93219 8.660156,15.975098 8.660156,15.975098 C7.121582,17.17633 5.171509,18.008728 3.0742188,18.008728 C2.7098389,18.008728 2.2578125,17.965881 1.9998779,17.922302 C3.9953613,19.213318 6.367676,19.999146 8.917847,19.999146 C17.218384,19.999146 21.765625,13.119324 21.765625,7.1051025 C21.765625,7.1051025 21.765625,6.4989624 21.765625,6.4989624 C22.648438,5.8569946 23.395996,4.989685 23.999878,4.076233 C23.999878,4.076233 22.415771,4.831848 21.38977,4.897644 ZM20.046753,7.1051025 C20.046753,8.403381 19.79419,9.766785 19.316284,11.048462 C18.814209,12.395264 18.091187,13.610107 17.167969,14.659851 C15.719727,16.306396 13.112915,18.26825 8.917847,18.26825 C8.794678,18.26825 8.671631,18.26593 8.548462,18.262268 C8.953613,18.02533 9.342773,17.762146 9.713257,17.472717 C9.713257,17.472717 10.378784,16.953003 10.378784,16.953003 C10.378784,16.953003 10.378784,16.10498 10.378784,16.10498 C10.378784,16.10498 10.378784,15.93219 10.378784,15.93219 C10.378784,15.93219 10.378784,14.201294 10.378784,14.201294 C10.378784,14.201294 9.670776,14.193298 9.670776,14.193298 C8.896484,14.184631 8.273315,13.550293 8.273315,12.770386 C8.273315,12.770386 8.273315,11.355164 8.273315,11.355164 C8.273315,11.355164 7.343994,11.143799 7.343994,11.143799 C6.932617,11.050415 6.640625,10.682251 6.640625,10.257935 C6.640625,10.257935 6.640625,9.181946 6.640625,9.181946 C6.640625,9.181946 6.640625,9.052002 6.640625,9.052002 C6.640625,9.052002 6.6191406,8.1698 6.6191406,8.1698 C6.6191406,8.1698 5.8547363,7.656067 5.8547363,7.656067 C5.524536,7.3762207 5.225464,6.9768066 5.012329,6.5444946 C7.2677,8.200989 9.946289,9.192261 12.72998,9.352417 C12.72998,9.352417 14.546875,9.456421 14.546875,9.456421 C14.546875,9.456421 14.546875,7.6244507 14.546875,7.6244507 C14.546875,7.6244507 14.546875,7.5809326 14.546875,7.5809326 C14.546875,7.5809326 14.546875,7.376587 14.546875,7.376587 C14.546875,7.376587 14.499512,7.1775513 14.499512,7.1775513 C14.4453125,6.94989 14.417847,6.736267 14.417847,6.5425415 C14.417847,5.79718 14.713135,5.093384 15.249268,4.561035 C15.788818,4.0253906 16.50061,3.7296143 17.253906,3.7296143 C18.01538,3.7296143 18.6781,4.0267334 19.223267,4.6115723 C19.223267,4.6115723 19.661865,5.0823975 19.661865,5.0823975 C19.661865,5.0823975 19.714966,5.288086 19.714966,5.288086 C19.714966,5.288086 19.72583,5.3309937 19.72583,5.3309937 C19.72583,5.3309937 20.046753,6.5807495 20.046753,6.5807495 C20.046753,6.5807495 20.046753,7.1051025 20.046753,7.1051025 Z"/>
</svg>