<svg xmlns="http://www.w3.org/2000/svg"
 xmlns:xlink="http://www.w3.org/1999/xlink"
 width="23px" height="21px"  viewBox="0 0 23 21">
<path fill-rule="evenodd"  fill="#b7bad2"
 d="M21.196045,6.4648438 C20.687988,5.4346924 19.94104,4.562439 18.976196,3.8709106 C17.265625,2.6467285 14.8532715,1.9990845 12.0,1.9990845 C9.146484,1.9990845 6.734253,2.6467285 5.0238037,3.8709106 C4.058838,4.562439 3.3118896,5.4346924 2.803711,6.4648438 C2.2703857,7.5460815 1.9998779,8.804871 1.9998779,10.205811 C1.9998779,13.236023 3.2609863,15.554443 5.6567383,16.94873 C5.3253174,18.107483 4.8953857,18.809631 4.8914795,18.815613 C4.8914795,18.815613 4.1500244,19.997253 4.1500244,19.997253 C4.1500244,19.997253 5.5544434,19.998901 5.5544434,19.998901 C5.5544434,19.998901 5.5585938,19.998901 5.5585938,19.998901 C5.5625,19.998901 5.5666504,19.998901 5.571045,19.998901 C6.014282,19.998901 8.0477295,19.904541 9.701294,18.260681 C10.430176,18.361328 11.201416,18.41217 12.0,18.41217 C14.8532715,18.41217 17.265625,17.764526 18.976196,16.54004 C19.94104,15.849182 20.687988,14.9765625 21.196045,13.946777 C21.729492,12.865173 22.0,11.6067505 22.0,10.205811 C22.0,8.804871 21.729492,7.5460815 21.196045,6.4648438 ZM18.061035,15.284973 C16.61853,16.317749 14.522705,16.863708 12.0,16.863708 C11.133057,16.863708 10.30603,16.798218 9.541504,16.669983 C9.541504,16.669983 9.106567,16.596863 9.106567,16.596863 C9.106567,16.596863 8.818726,16.927795 8.818726,16.927795 C8.200195,17.639587 7.486084,18.02008 6.879883,18.222412 C7.0373535,17.801758 7.1967773,17.296692 7.3254395,16.720764 C7.3254395,16.720764 7.458008,16.12799 7.458008,16.12799 C7.458008,16.12799 6.908325,15.859131 6.908325,15.859131 C4.6881104,14.773865 3.5625,12.872131 3.5625,10.205811 C3.5625,7.9644775 4.3619385,6.254822 5.938843,5.126648 C7.3812256,4.093567 9.477173,3.5476074 12.0,3.5476074 C14.522705,3.5476074 16.61853,4.093567 18.061035,5.126648 C19.63794,6.254822 20.4375,7.9644775 20.4375,10.205811 C20.4375,12.446777 19.63794,14.156128 18.061035,15.284973 Z"/>
</svg>