<svg xmlns="http://www.w3.org/2000/svg" width="1920" height="605.61" viewBox="0 0 1920 605.61">
	<style type="text/css">
		.st0{fill:#21254c;}
	</style>
	<path class="st0" d="M1778.86,323.41L1778.86,361.76C1778.86,369.15 1784.85,375.14 1792.24,375.14C1799.63,375.14 1805.62,369.15 1805.62,361.76L1805.62,321.33C1805.62,314.58 1811.09,309.11 1817.84,309.11C1824.59,309.11 1830.07,314.58 1830.07,321.33L1830.07,433.55C1830.07,444.23 1838.73,452.9 1849.41,452.9C1860.1,452.9 1868.76,444.23 1868.76,433.55L1868.76,397.73L1868.76,320.91C1868.76,314.39 1874.05,309.11 1880.56,309.11C1887.08,309.11 1892.37,314.39 1892.37,320.91L1892.37,409.58C1892.37,420.26 1901.03,428.93 1911.71,428.93C1914.68,428.93 1917.48,428.26 1920,427.07L1920,0L1590.66,0L1590.66,309.11L1764.56,309.11C1772.46,309.11 1778.86,315.51 1778.86,323.41"/>
	<path class="st0" d="M1849.41,499.53C1839.95,499.53 1832.28,507.2 1832.28,516.66C1832.28,526.12 1839.95,533.8 1849.41,533.8C1858.88,533.8 1866.55,526.12 1866.55,516.66C1866.55,507.2 1858.88,499.53 1849.41,499.53"/>
	<path class="st0" d="M203.42,545.86C203.42,535.21 194.79,526.57 184.14,526.57C173.49,526.57 164.85,535.21 164.85,545.86L164.85,604.12C164.85,604.63 164.82,605.12 164.78,605.61L203.92,605.61C203.6,604.17 203.42,602.67 203.42,601.13Z"/>
	<path class="st0" d="M129.62,442.38C129.62,426.98 117.13,414.49 101.73,414.49C86.33,414.49 73.84,426.98 73.84,442.38L73.84,494L73.84,604.73C73.84,605.03 73.81,605.32 73.79,605.61L129.69,605.61C129.65,605.12 129.62,604.63 129.62,604.12Z"/>
	<path class="st0" d="M39.82,476.93C39.82,461.53 27.33,449.04 11.93,449.04C7.66,449.04 3.61,450.01 0,451.72L0,605.61L39.86,605.61C39.85,605.32 39.82,605.03 39.82,604.73Z"/>
	<path class="st0" d="M101.73,389.8C115.37,389.8 126.42,378.74 126.42,365.1C126.42,351.46 115.37,340.41 101.73,340.41C88.09,340.41 77.03,351.46 77.03,365.1C77.03,378.74 88.09,389.8 101.73,389.8"/>
</svg>