<svg xmlns="http://www.w3.org/2000/svg"
 xmlns:xlink="http://www.w3.org/1999/xlink"
 width="21px" height="48px"  viewBox="0 0 21 48">
<path fill-rule="evenodd"  fill="#fd2954"
 d="M2.0,44.75 C2.5522766,44.75 2.9999695,45.253418 2.9999695,45.874756 C2.9999695,46.496216 2.5522766,46.999878 2.0,46.999878 C1.4476929,46.999878 1.0,46.496216 1.0,45.874756 C1.0,45.253418 1.4476929,44.75 2.0,44.75 ZM10.9999695,38.624756 C11.552246,38.624756 11.999939,39.12854 11.999939,39.749878 C11.999939,40.371338 11.552246,40.874756 10.9999695,40.874756 C10.447662,40.874756 9.9999695,40.371338 9.9999695,39.749878 C9.9999695,39.12854 10.447662,38.624756 10.9999695,38.624756 ZM18.999939,30.999878 C19.552246,30.999878 19.999939,31.503662 19.999939,32.124756 C19.999939,32.746094 19.552246,33.249878 18.999939,33.249878 C18.447662,33.249878 17.99997,32.746094 17.99997,32.124756 C17.99997,31.503662 18.447662,30.999878 18.999939,30.999878 ZM1.0,1.9997559 C1.0,1.9997559 2.9999695,1.9997559 2.9999695,1.9997559 C2.9999695,1.9997559 2.9999695,41.374878 2.9999695,41.374878 C2.9999695,41.374878 1.0,41.374878 1.0,41.374878 C1.0,41.374878 1.0,1.9997559 1.0,1.9997559 ZM9.9999695,1.9997559 C9.9999695,1.9997559 11.999939,1.9997559 11.999939,1.9997559 C11.999939,1.9997559 11.999939,34.874756 11.999939,34.874756 C11.999939,34.874756 9.9999695,34.874756 9.9999695,34.874756 C9.9999695,34.874756 9.9999695,1.9997559 9.9999695,1.9997559 ZM17.99997,1.9997559 C17.99997,1.9997559 19.999939,1.9997559 19.999939,1.9997559 C19.999939,1.9997559 19.999939,27.624756 19.999939,27.624756 C19.999939,27.624756 17.99997,27.624756 17.99997,27.624756 C17.99997,27.624756 17.99997,1.9997559 17.99997,1.9997559 Z"/>
</svg>