<svg xmlns="http://www.w3.org/2000/svg"
 xmlns:xlink="http://www.w3.org/1999/xlink"
 width="50px" height="14px"  viewBox="0 0 50 14">
<path fill-rule="evenodd"  fill="#98a0b9"
 d="M48.79077,6.7474365 C48.79077,6.7474365 43.06299,2.1677246 43.06299,2.1677246 C42.839844,1.9869385 42.596313,1.9523926 42.331787,2.0637207 C42.06714,2.175293 41.934692,2.376709 41.934692,2.6691895 C41.934692,2.6691895 41.934692,6.1383057 41.934692,6.1383057 C41.934692,6.1383057 1.6687012,6.1383057 1.6687012,6.1383057 C1.4736328,6.1383057 1.3133545,6.2008057 1.1882324,6.32605 C1.0632324,6.4506836 1.0002441,6.611206 1.0002441,6.8065186 C1.0002441,6.8065186 1.0002441,7.3398438 1.0002441,7.3398438 C1.0002441,7.534668 1.0629883,7.694824 1.1882324,7.819702 C1.3135986,7.944702 1.473877,8.007446 1.6687012,8.007446 C1.6687012,8.007446 41.934692,8.007446 41.934692,8.007446 C41.934692,8.007446 41.934692,11.331421 41.934692,11.331421 C41.934692,11.610596 42.06775,11.8116455 42.331787,11.93689 C42.5968,12.048584 42.840454,12.006348 43.063477,11.8116455 C43.063477,11.8116455 48.79126,7.727661 48.79126,7.727661 C48.93042,7.588745 48.99951,7.4223633 48.99951,7.2265625 C48.99951,7.046753 48.92993,6.886963 48.79077,6.7474365 Z"/>
</svg>