<svg xmlns="http://www.w3.org/2000/svg"
 xmlns:xlink="http://www.w3.org/1999/xlink"
 width="50px" height="14px"  viewBox="0 0 50 14">
<path fill-rule="evenodd"  fill="#98a0b9"
 d="M1.2092285,6.7474365 C1.2092285,6.7474365 6.9368896,2.1677246 6.9368896,2.1677246 C7.160034,1.9869385 7.4035645,1.9523926 7.668045,2.0637207 C7.9327393,2.175293 8.065155,2.376709 8.065155,2.6691895 C8.065155,2.6691895 8.065155,6.1383057 8.065155,6.1383057 C8.065155,6.1383057 48.331192,6.1383057 48.331192,6.1383057 C48.5262,6.1383057 48.686523,6.2008057 48.811737,6.32605 C48.936813,6.4506836 48.999634,6.611206 48.999634,6.8065186 C48.999634,6.8065186 48.999634,7.3398438 48.999634,7.3398438 C48.999634,7.534668 48.93692,7.694824 48.811737,7.819702 C48.68631,7.944702 48.526093,8.007446 48.331192,8.007446 C48.331192,8.007446 8.065155,8.007446 8.065155,8.007446 C8.065155,8.007446 8.065155,11.331421 8.065155,11.331421 C8.065155,11.610596 7.9321747,11.8116455 7.668045,11.93689 C7.4031067,12.048584 7.1595764,12.006348 6.936432,11.8116455 C6.936432,11.8116455 1.2086487,7.727661 1.2086487,7.727661 C1.0694885,7.588745 1.0003662,7.4223633 1.0003662,7.2265625 C1.0003662,7.046753 1.0699463,6.886963 1.2092285,6.7474365 Z"/>
</svg>