<svg xmlns="http://www.w3.org/2000/svg" viewBox="0 0 1920 605.61">
	<style type="text/css">
		.st0{fill:#21254c;}
	</style>
	<path class="st0" d="M141.14,282.2L141.14,243.85C141.14,236.46 135.15,230.47 127.76,230.47C120.37,230.47 114.38,236.46 114.38,243.85L114.38,284.28C114.38,291.03 108.91,296.5 102.16,296.5C95.41,296.5 89.93,291.03 89.93,284.28L89.93,172.06C89.93,161.38 81.27,152.71 70.59,152.71C59.9,152.71 51.24,161.38 51.24,172.06L51.24,207.88L51.24,284.7C51.24,291.22 45.95,296.5 39.44,296.5C32.92,296.5 27.63,291.22 27.63,284.7L27.63,196.03C27.63,185.35 18.97,176.68 8.29,176.68C5.32,176.68 2.52,177.35 0,178.54L0,0L276.27,0L276.27,309.11L155.44,309.11C147.54,309.11 141.14,315.51 141.14,282.2"/>
	<path class="st0" d="M70.59,499.53C1839.95,499.53 1832.28,507.2 1832.28,516.66C1832.28,526.12 1839.95,533.8 70.59,533.8C1858.88,533.8 1866.55,526.12 1866.55,516.66C1866.55,507.2 1858.88,499.53 70.59,499.53"/>
	
	
</svg>